# xmcd
#
# Track frame offsets:
#	182
#	15095
#	51285
#	65327
#	85750
#	100547
#	134225
#	145352
#	163210
#	173700
#	189865
#	215815
#	248237
#	277957
#	293112
#	323632
#
# Disc length: 4543 seconds
#
# Revision: 0
# Processed by: cddbd v1.5.2PL0 Copyright (c) Steve Scherf et al.
# Submitted via: audiograbber 1.83.01
#
DISCID=e411bd10
DTITLE=Various Artist - Les Intemporelles
DYEAR=1993
DGENRE=Blues
TTITLE0=Anita O'Day - Let's face the music and dance
TTITLE1=Teddy Edwards - Glass of water
TTITLE2=Billie Holiday - Baby, won't you please come home
TTITLE3=Joe Henderson - So near, so far
TTITLE4=Wes Montgomery - Movin' Wes. Part I
TTITLE5=Charlie Haden - Hello, my lovely
TTITLE6=Ella Fitzgerald - Lullaby of birdland
TTITLE7=Stephane Grappelli and Michel Legrand - Mon homme
TTITLE8=Wolfgang Muthspiel - Duett
TTITLE9=Yosuke Yamashita - Tiny square
TTITLE10=Duke Ellington and Johnny Hodges - St. Louis Blues
TTITLE11=Shirley Horn and Miles Davis  - You won't forget me
TTITLE12=John McLaughlin - Belo Horizonte
TTITLE13=Randy Weston - African Village Bedford-Stuyvesant 1
TTITLE14=Abbey Lincoln - Brother, can you spare a dime?
TTITLE15=Gabrielle Goodman - Over the rainbow
EXTD=
EXTT0=
EXTT1=
EXTT2=
EXTT3=
EXTT4=
EXTT5=
EXTT6=
EXTT7=
EXTT8=
EXTT9=
EXTT10=
EXTT11=
EXTT12=
EXTT13=
EXTT14=
EXTT15=
PLAYORDER=
